<mxfile host="app.diagrams.net" agent="Mozilla/5.0 (Windows NT 10.0; Win64; x64) AppleWebKit/537.36 (KHTML, like Gecko) Chrome/130.0.0.0 Safari/537.36" version="24.8.6">
  <diagram name="Page-1" id="Ti77MKwaVp59VMjLotsC">
    <mxGraphModel dx="1615" dy="857" grid="1" gridSize="10" guides="1" tooltips="1" connect="1" arrows="1" fold="1" page="1" pageScale="1" pageWidth="3300" pageHeight="4681" math="0" shadow="0">
      <root>
        <mxCell id="0" />
        <mxCell id="1" parent="0" />
        <mxCell id="NJeFswGFZ8Zi8KDs3JMU-1" value="" style="shape=table;startSize=0;container=1;collapsible=0;childLayout=tableLayout;" vertex="1" parent="1">
          <mxGeometry x="1220" y="191" width="310" height="239.00000000000023" as="geometry" />
        </mxCell>
        <mxCell id="NJeFswGFZ8Zi8KDs3JMU-2" value="" style="shape=tableRow;horizontal=0;startSize=0;swimlaneHead=0;swimlaneBody=0;strokeColor=inherit;top=0;left=0;bottom=0;right=0;collapsible=0;dropTarget=0;fillColor=none;points=[[0,0.5],[1,0.5]];portConstraint=eastwest;" vertex="1" parent="NJeFswGFZ8Zi8KDs3JMU-1">
          <mxGeometry width="310" height="30" as="geometry" />
        </mxCell>
        <mxCell id="NJeFswGFZ8Zi8KDs3JMU-3" value="&lt;font style=&quot;font-size: 14px;&quot;&gt;Server&lt;/font&gt;" style="shape=partialRectangle;html=1;whiteSpace=wrap;connectable=0;strokeColor=inherit;overflow=hidden;fillColor=none;top=0;left=0;bottom=0;right=0;pointerEvents=1;" vertex="1" parent="NJeFswGFZ8Zi8KDs3JMU-2">
          <mxGeometry width="310" height="30" as="geometry">
            <mxRectangle width="310" height="30" as="alternateBounds" />
          </mxGeometry>
        </mxCell>
        <mxCell id="NJeFswGFZ8Zi8KDs3JMU-4" value="" style="shape=tableRow;horizontal=0;startSize=0;swimlaneHead=0;swimlaneBody=0;strokeColor=inherit;top=0;left=0;bottom=0;right=0;collapsible=0;dropTarget=0;fillColor=none;points=[[0,0.5],[1,0.5]];portConstraint=eastwest;" vertex="1" parent="NJeFswGFZ8Zi8KDs3JMU-1">
          <mxGeometry y="30" width="310" height="79" as="geometry" />
        </mxCell>
        <mxCell id="NJeFswGFZ8Zi8KDs3JMU-5" value="&lt;ol&gt;&lt;li&gt;port : int&lt;/li&gt;&lt;li&gt;ip: string&lt;/li&gt;&lt;/ol&gt;" style="shape=partialRectangle;html=1;whiteSpace=wrap;connectable=0;strokeColor=inherit;overflow=hidden;fillColor=none;top=0;left=0;bottom=0;right=0;pointerEvents=1;align=left;" vertex="1" parent="NJeFswGFZ8Zi8KDs3JMU-4">
          <mxGeometry width="310" height="79" as="geometry">
            <mxRectangle width="310" height="79" as="alternateBounds" />
          </mxGeometry>
        </mxCell>
        <mxCell id="NJeFswGFZ8Zi8KDs3JMU-6" value="" style="shape=tableRow;horizontal=0;startSize=0;swimlaneHead=0;swimlaneBody=0;strokeColor=inherit;top=0;left=0;bottom=0;right=0;collapsible=0;dropTarget=0;fillColor=none;points=[[0,0.5],[1,0.5]];portConstraint=eastwest;" vertex="1" parent="NJeFswGFZ8Zi8KDs3JMU-1">
          <mxGeometry y="109" width="310" height="130" as="geometry" />
        </mxCell>
        <mxCell id="NJeFswGFZ8Zi8KDs3JMU-7" value="&lt;ol&gt;&lt;li&gt;tracker_response&lt;/li&gt;&lt;li&gt;new_connection&lt;/li&gt;&lt;li&gt;server_program&lt;/li&gt;&lt;/ol&gt;" style="shape=partialRectangle;html=1;whiteSpace=wrap;connectable=0;strokeColor=inherit;overflow=hidden;fillColor=none;top=0;left=0;bottom=0;right=0;pointerEvents=1;align=left;" vertex="1" parent="NJeFswGFZ8Zi8KDs3JMU-6">
          <mxGeometry width="310" height="130" as="geometry">
            <mxRectangle width="310" height="130" as="alternateBounds" />
          </mxGeometry>
        </mxCell>
        <mxCell id="NJeFswGFZ8Zi8KDs3JMU-9" value="" style="shape=table;startSize=0;container=1;collapsible=0;childLayout=tableLayout;" vertex="1" parent="1">
          <mxGeometry x="1550" y="530" width="310" height="270" as="geometry" />
        </mxCell>
        <mxCell id="NJeFswGFZ8Zi8KDs3JMU-10" value="" style="shape=tableRow;horizontal=0;startSize=0;swimlaneHead=0;swimlaneBody=0;strokeColor=inherit;top=0;left=0;bottom=0;right=0;collapsible=0;dropTarget=0;fillColor=none;points=[[0,0.5],[1,0.5]];portConstraint=eastwest;" vertex="1" parent="NJeFswGFZ8Zi8KDs3JMU-9">
          <mxGeometry width="310" height="41" as="geometry" />
        </mxCell>
        <mxCell id="NJeFswGFZ8Zi8KDs3JMU-11" value="&lt;font style=&quot;font-size: 14px;&quot;&gt;peer&lt;/font&gt;" style="shape=partialRectangle;html=1;whiteSpace=wrap;connectable=0;strokeColor=inherit;overflow=hidden;fillColor=none;top=0;left=0;bottom=0;right=0;pointerEvents=1;" vertex="1" parent="NJeFswGFZ8Zi8KDs3JMU-10">
          <mxGeometry width="310" height="41" as="geometry">
            <mxRectangle width="310" height="41" as="alternateBounds" />
          </mxGeometry>
        </mxCell>
        <mxCell id="NJeFswGFZ8Zi8KDs3JMU-12" value="" style="shape=tableRow;horizontal=0;startSize=0;swimlaneHead=0;swimlaneBody=0;strokeColor=inherit;top=0;left=0;bottom=0;right=0;collapsible=0;dropTarget=0;fillColor=none;points=[[0,0.5],[1,0.5]];portConstraint=eastwest;" vertex="1" parent="NJeFswGFZ8Zi8KDs3JMU-9">
          <mxGeometry y="41" width="310" height="99" as="geometry" />
        </mxCell>
        <mxCell id="NJeFswGFZ8Zi8KDs3JMU-13" value="&lt;ol&gt;&lt;li&gt;id : int&lt;/li&gt;&lt;li&gt;ip: string&lt;/li&gt;&lt;li&gt;port: int&lt;/li&gt;&lt;li&gt;tracker_adress: tuple&lt;/li&gt;&lt;li&gt;repository&lt;/li&gt;&lt;/ol&gt;" style="shape=partialRectangle;html=1;whiteSpace=wrap;connectable=0;strokeColor=inherit;overflow=hidden;fillColor=none;top=0;left=0;bottom=0;right=0;pointerEvents=1;align=left;" vertex="1" parent="NJeFswGFZ8Zi8KDs3JMU-12">
          <mxGeometry width="310" height="99" as="geometry">
            <mxRectangle width="310" height="99" as="alternateBounds" />
          </mxGeometry>
        </mxCell>
        <mxCell id="NJeFswGFZ8Zi8KDs3JMU-14" value="" style="shape=tableRow;horizontal=0;startSize=0;swimlaneHead=0;swimlaneBody=0;strokeColor=inherit;top=0;left=0;bottom=0;right=0;collapsible=0;dropTarget=0;fillColor=none;points=[[0,0.5],[1,0.5]];portConstraint=eastwest;" vertex="1" parent="NJeFswGFZ8Zi8KDs3JMU-9">
          <mxGeometry y="140" width="310" height="130" as="geometry" />
        </mxCell>
        <mxCell id="NJeFswGFZ8Zi8KDs3JMU-15" value="&lt;ol&gt;&lt;li&gt;scan_repository&lt;/li&gt;&lt;li&gt;submit_info&lt;/li&gt;&lt;li&gt;serve_file&lt;/li&gt;&lt;/ol&gt;" style="shape=partialRectangle;html=1;whiteSpace=wrap;connectable=0;strokeColor=inherit;overflow=hidden;fillColor=none;top=0;left=0;bottom=0;right=0;pointerEvents=1;align=left;" vertex="1" parent="NJeFswGFZ8Zi8KDs3JMU-14">
          <mxGeometry width="310" height="130" as="geometry">
            <mxRectangle width="310" height="130" as="alternateBounds" />
          </mxGeometry>
        </mxCell>
        <mxCell id="NJeFswGFZ8Zi8KDs3JMU-16" value="" style="shape=table;startSize=0;container=1;collapsible=0;childLayout=tableLayout;" vertex="1" parent="1">
          <mxGeometry x="950" y="540" width="310" height="270" as="geometry" />
        </mxCell>
        <mxCell id="NJeFswGFZ8Zi8KDs3JMU-17" value="" style="shape=tableRow;horizontal=0;startSize=0;swimlaneHead=0;swimlaneBody=0;strokeColor=inherit;top=0;left=0;bottom=0;right=0;collapsible=0;dropTarget=0;fillColor=none;points=[[0,0.5],[1,0.5]];portConstraint=eastwest;" vertex="1" parent="NJeFswGFZ8Zi8KDs3JMU-16">
          <mxGeometry width="310" height="41" as="geometry" />
        </mxCell>
        <mxCell id="NJeFswGFZ8Zi8KDs3JMU-18" value="&lt;font style=&quot;font-size: 14px;&quot;&gt;file&lt;/font&gt;" style="shape=partialRectangle;html=1;whiteSpace=wrap;connectable=0;strokeColor=inherit;overflow=hidden;fillColor=none;top=0;left=0;bottom=0;right=0;pointerEvents=1;" vertex="1" parent="NJeFswGFZ8Zi8KDs3JMU-17">
          <mxGeometry width="310" height="41" as="geometry">
            <mxRectangle width="310" height="41" as="alternateBounds" />
          </mxGeometry>
        </mxCell>
        <mxCell id="NJeFswGFZ8Zi8KDs3JMU-19" value="" style="shape=tableRow;horizontal=0;startSize=0;swimlaneHead=0;swimlaneBody=0;strokeColor=inherit;top=0;left=0;bottom=0;right=0;collapsible=0;dropTarget=0;fillColor=none;points=[[0,0.5],[1,0.5]];portConstraint=eastwest;" vertex="1" parent="NJeFswGFZ8Zi8KDs3JMU-16">
          <mxGeometry y="41" width="310" height="99" as="geometry" />
        </mxCell>
        <mxCell id="NJeFswGFZ8Zi8KDs3JMU-20" value="&lt;ol&gt;&lt;li&gt;meta_info: dict&lt;/li&gt;&lt;li&gt;pieces: list&lt;/li&gt;&lt;li&gt;path: string&lt;/li&gt;&lt;/ol&gt;" style="shape=partialRectangle;html=1;whiteSpace=wrap;connectable=0;strokeColor=inherit;overflow=hidden;fillColor=none;top=0;left=0;bottom=0;right=0;pointerEvents=1;align=left;" vertex="1" parent="NJeFswGFZ8Zi8KDs3JMU-19">
          <mxGeometry width="310" height="99" as="geometry">
            <mxRectangle width="310" height="99" as="alternateBounds" />
          </mxGeometry>
        </mxCell>
        <mxCell id="NJeFswGFZ8Zi8KDs3JMU-21" value="" style="shape=tableRow;horizontal=0;startSize=0;swimlaneHead=0;swimlaneBody=0;strokeColor=inherit;top=0;left=0;bottom=0;right=0;collapsible=0;dropTarget=0;fillColor=none;points=[[0,0.5],[1,0.5]];portConstraint=eastwest;" vertex="1" parent="NJeFswGFZ8Zi8KDs3JMU-16">
          <mxGeometry y="140" width="310" height="130" as="geometry" />
        </mxCell>
        <mxCell id="NJeFswGFZ8Zi8KDs3JMU-22" value="&lt;ol&gt;&lt;li&gt;get_piece&lt;/li&gt;&lt;li&gt;get_piiece_download&lt;/li&gt;&lt;li&gt;get_meta_info&lt;/li&gt;&lt;/ol&gt;" style="shape=partialRectangle;html=1;whiteSpace=wrap;connectable=0;strokeColor=inherit;overflow=hidden;fillColor=none;top=0;left=0;bottom=0;right=0;pointerEvents=1;align=left;" vertex="1" parent="NJeFswGFZ8Zi8KDs3JMU-21">
          <mxGeometry width="310" height="130" as="geometry">
            <mxRectangle width="310" height="130" as="alternateBounds" />
          </mxGeometry>
        </mxCell>
        <mxCell id="NJeFswGFZ8Zi8KDs3JMU-27" value="" style="shape=table;startSize=0;container=1;collapsible=0;childLayout=tableLayout;" vertex="1" parent="1">
          <mxGeometry x="1230" y="860" width="310" height="140" as="geometry" />
        </mxCell>
        <mxCell id="NJeFswGFZ8Zi8KDs3JMU-28" value="" style="shape=tableRow;horizontal=0;startSize=0;swimlaneHead=0;swimlaneBody=0;strokeColor=inherit;top=0;left=0;bottom=0;right=0;collapsible=0;dropTarget=0;fillColor=none;points=[[0,0.5],[1,0.5]];portConstraint=eastwest;" vertex="1" parent="NJeFswGFZ8Zi8KDs3JMU-27">
          <mxGeometry width="310" height="41" as="geometry" />
        </mxCell>
        <mxCell id="NJeFswGFZ8Zi8KDs3JMU-29" value="&lt;font style=&quot;font-size: 14px;&quot;&gt;Piece&lt;/font&gt;" style="shape=partialRectangle;html=1;whiteSpace=wrap;connectable=0;strokeColor=inherit;overflow=hidden;fillColor=none;top=0;left=0;bottom=0;right=0;pointerEvents=1;" vertex="1" parent="NJeFswGFZ8Zi8KDs3JMU-28">
          <mxGeometry width="310" height="41" as="geometry">
            <mxRectangle width="310" height="41" as="alternateBounds" />
          </mxGeometry>
        </mxCell>
        <mxCell id="NJeFswGFZ8Zi8KDs3JMU-30" value="" style="shape=tableRow;horizontal=0;startSize=0;swimlaneHead=0;swimlaneBody=0;strokeColor=inherit;top=0;left=0;bottom=0;right=0;collapsible=0;dropTarget=0;fillColor=none;points=[[0,0.5],[1,0.5]];portConstraint=eastwest;" vertex="1" parent="NJeFswGFZ8Zi8KDs3JMU-27">
          <mxGeometry y="41" width="310" height="99" as="geometry" />
        </mxCell>
        <mxCell id="NJeFswGFZ8Zi8KDs3JMU-31" value="&lt;ol&gt;&lt;li&gt;index&lt;/li&gt;&lt;li&gt;data&lt;/li&gt;&lt;/ol&gt;" style="shape=partialRectangle;html=1;whiteSpace=wrap;connectable=0;strokeColor=inherit;overflow=hidden;fillColor=none;top=0;left=0;bottom=0;right=0;pointerEvents=1;align=left;" vertex="1" parent="NJeFswGFZ8Zi8KDs3JMU-30">
          <mxGeometry width="310" height="99" as="geometry">
            <mxRectangle width="310" height="99" as="alternateBounds" />
          </mxGeometry>
        </mxCell>
        <mxCell id="NJeFswGFZ8Zi8KDs3JMU-34" style="edgeStyle=orthogonalEdgeStyle;rounded=0;orthogonalLoop=1;jettySize=auto;html=1;exitX=1;exitY=0.5;exitDx=0;exitDy=0;entryX=0.395;entryY=-0.077;entryDx=0;entryDy=0;entryPerimeter=0;" edge="1" parent="1" source="NJeFswGFZ8Zi8KDs3JMU-6" target="NJeFswGFZ8Zi8KDs3JMU-10">
          <mxGeometry relative="1" as="geometry">
            <Array as="points">
              <mxPoint x="1672" y="365" />
            </Array>
          </mxGeometry>
        </mxCell>
        <mxCell id="NJeFswGFZ8Zi8KDs3JMU-35" style="edgeStyle=orthogonalEdgeStyle;rounded=0;orthogonalLoop=1;jettySize=auto;html=1;exitX=0;exitY=0.5;exitDx=0;exitDy=0;entryX=1;entryY=0.5;entryDx=0;entryDy=0;" edge="1" parent="1" source="NJeFswGFZ8Zi8KDs3JMU-12" target="NJeFswGFZ8Zi8KDs3JMU-19">
          <mxGeometry relative="1" as="geometry" />
        </mxCell>
        <mxCell id="NJeFswGFZ8Zi8KDs3JMU-36" style="edgeStyle=orthogonalEdgeStyle;rounded=0;orthogonalLoop=1;jettySize=auto;html=1;entryX=0.395;entryY=-0.014;entryDx=0;entryDy=0;entryPerimeter=0;" edge="1" parent="1" source="NJeFswGFZ8Zi8KDs3JMU-21" target="NJeFswGFZ8Zi8KDs3JMU-28">
          <mxGeometry relative="1" as="geometry" />
        </mxCell>
      </root>
    </mxGraphModel>
  </diagram>
</mxfile>
